<?xml version="1.0" encoding="UTF-8" standalone="no"?>
<svg width="230px" height="229px" viewBox="0 0 230 229" version="1.1" xmlns="http://www.w3.org/2000/svg" xmlns:xlink="http://www.w3.org/1999/xlink" xmlns:sketch="http://www.bohemiancoding.com/sketch/ns">
    <!-- Generator: Sketch 3.0.4 (8053) - http://www.bohemiancoding.com/sketch -->
    <title>Oval 36</title>
    <desc>Created with Sketch.</desc>
    <defs></defs>
    <g id="Page-1" stroke="none" stroke-width="1" fill="none" fill-rule="evenodd" sketch:type="MSPage">
        <g id="works-servzy" sketch:type="MSLayerGroup" transform="translate(-461.000000, -210.000000)" fill-opacity="0.778928895" fill="#FFFFFF" opacity="0.895405784">
            <path d="M498.385343,374.794699 C496.533224,382.793131 491.907461,389.729937 485.575286,394.538527 L485.575286,394.538527 C506.461067,421.581472 539.216426,439 576.042553,439 C639.120522,439 690.255319,387.896018 690.255319,324.856061 C690.255319,305.540548 685.4547,287.345603 676.980827,271.397913 L676.980827,271.397913 C671.818791,274.451741 665.795065,276.204545 659.361702,276.204545 C656.561374,276.204545 653.83866,275.872441 651.230843,275.245491 L651.230843,275.245491 L636.332038,315.084913 C642.026382,324.152571 645.319149,334.879484 645.319149,346.375 C645.319149,378.92842 618.913475,405.318182 586.340426,405.318182 C565.252433,405.318182 546.749401,394.257316 536.323001,377.623946 L498.385343,374.794699 Z M496.183168,352.637973 C490.732628,340.665163 478.658166,332.340909 464.638298,332.340909 C463.776992,332.340909 462.923028,332.372327 462.077492,332.434078 C461.913216,329.929267 461.829787,327.402401 461.829787,324.856061 C461.829787,300.490274 469.468947,277.907633 482.484255,259.369787 C490.039503,268.509017 501.46683,274.333333 514.255319,274.333333 C517.312903,274.333333 520.292679,274.000395 523.160328,273.368816 L523.160328,273.368816 L539.619996,310.396256 C532.035992,320.218128 527.483762,332.497891 527.364121,345.835573 L496.183168,352.637973 Z M635.344861,266.532164 C628.797346,260.234365 624.723404,251.386216 624.723404,241.587121 C624.723404,235.157635 626.477266,229.137539 629.532935,223.978614 C613.575628,215.509847 595.369713,210.712121 576.042553,210.712121 C567.259552,210.712121 558.708103,211.702919 550.494009,213.578779 L550.493999,213.578781 C553.652937,219.40365 555.446809,226.075794 555.446809,233.166667 C555.446809,244.931964 550.508279,255.544501 542.589922,263.046754 L566.925106,290.700124 C573.005055,288.582652 579.538263,287.431818 586.340426,287.431818 C596.106629,287.431818 605.318418,289.804121 613.430315,294.00358 L635.344861,266.532164 L635.344861,266.532164 Z" id="Oval-36" sketch:type="MSShapeGroup"></path>
        </g>
    </g>
</svg>