<?xml version="1.0" encoding="UTF-8" standalone="no"?>
<svg width="112px" height="98px" viewBox="0 0 112 98" version="1.1" xmlns="http://www.w3.org/2000/svg" xmlns:xlink="http://www.w3.org/1999/xlink" xmlns:sketch="http://www.bohemiancoding.com/sketch/ns">
    <!-- Generator: Sketch 3.0.4 (8053) - http://www.bohemiancoding.com/sketch -->
    <title>Group + Oval 23 + Oval 24</title>
    <desc>Created with Sketch.</desc>
    <defs></defs>
    <g id="Page-1" stroke="none" stroke-width="1" fill="none" fill-rule="evenodd" sketch:type="MSPage">
        <g id="Group-+-Oval-23-+-Oval-24" sketch:type="MSLayerGroup" stroke-width="2" stroke="#BBBBBB">
            <g id="Group" sketch:type="MSShapeGroup">
                <rect id="Rectangle-24" x="36" y="74" width="39.424" height="16.962963"></rect>
                <rect id="Rectangle-25" fill="#FFFFFF" x="0" y="0" width="112" height="76.3425926" rx="10"></rect>
                <rect id="Rectangle-27" x="9.856" y="9.87962963" width="91.392" height="56.5833333"></rect>
                <rect id="Rectangle-26" x="29" y="89" width="53.76" height="8.08333333"></rect>
            </g>
            <path d="M44.5533478,50.1718426 C45.787572,49.8227592 46.9566293,49.3184657 48.0381015,48.6813804 L51.5061902,52.1494692 L57.2473353,46.4083242 L53.6518144,42.8128033 L53.6518144,42.8128033 C54.1378153,41.8966823 54.530941,40.9237474 54.8186417,39.9065487 L54.8186417,39.9065487 L59.8896244,39.9065487 L59.8896244,31.7873435 L54.8186417,31.7873435 C54.4996496,30.6595104 54.0510525,29.5860935 53.4899567,28.5841991 L57.2574967,24.945928 L51.6174229,19.1054606 L47.7454661,22.8445657 L47.7454661,22.8445657 C46.8812431,22.3615355 45.9639053,21.9621701 45.0044148,21.6574314 L45.0044148,21.6574314 L45.0044148,16 L36.8852096,16 L36.8852096,21.4021343 C35.9261764,21.6409389 35.0039244,21.972752 34.1285861,22.387441 L34.1285861,22.387441 L30.3834341,18.6422891 L24.6422891,24.3834341 L28.0042762,27.7454213 C27.2863742,28.8498869 26.711002,30.0555289 26.3042306,31.3362765 L22,31.3362765 L22,39.4554818 L26.0489335,39.4554818 L26.0489335,39.4554818 C26.3765648,40.7712409 26.8792646,42.0177674 27.5308666,43.1688946 L27.5308666,43.1688946 L24.5092497,46.0868361 L30.1493235,51.9273035 L33.3020875,48.8827148 C34.2836137,49.4253656 35.3329398,49.8603825 36.4341426,50.1718426 L36.4341426,54.7917583 L44.5533478,54.7917583 L44.5533478,50.1718426 L44.5533478,50.1718426 Z M40.9448122,45.512877 C46.5322758,45.512877 51.06181,40.9833428 51.06181,35.3958791 C51.06181,29.8084155 46.5322758,25.2788813 40.9448122,25.2788813 C35.3573486,25.2788813 30.8278144,29.8084155 30.8278144,35.3958791 C30.8278144,40.9833428 35.3573486,45.512877 40.9448122,45.512877 Z" id="Oval-23" sketch:type="MSShapeGroup"></path>
            <path d="M80.8052155,56.2074404 C81.4534459,55.6093435 82.013884,54.9373384 82.479794,54.2119315 L85.6906089,55.2551885 L87.4229946,49.9234536 L84.1109081,48.8472914 L84.1109081,48.8472914 C84.1237227,48.1442442 84.063638,47.4357794 83.92699,46.7330515 L83.92699,46.7330515 L87.0317476,45.1510985 L84.4866233,40.1560109 L81.3818657,41.7379639 C80.8399955,41.156797 80.2369658,40.6477845 79.5880612,40.2158386 L80.7560042,36.8238859 L75.4553156,34.9987124 L74.2490016,38.5021026 L74.2490016,38.5021026 C73.5697317,38.4784289 72.8839423,38.5219824 72.2016618,38.6359858 L72.2016618,38.6359858 L70.4396061,35.1777569 L65.4445185,37.7228811 L67.1270597,41.0250541 C66.6136785,41.4697022 66.1514435,41.9592782 65.7433924,42.4845347 L65.7433924,42.4845347 L62.2755424,41.3577619 L60.5431567,46.6894969 L63.6380772,47.6950975 C63.5421432,48.5863432 63.5630534,49.4943379 63.7084909,50.395691 L61.0748924,51.7375765 L63.6200167,56.7326641 L66.0954445,55.4713707 L66.0954445,55.4713707 C66.7021216,56.1649911 67.3931493,56.7632053 68.1449664,57.2584415 L68.1449664,57.2584415 L67.2096136,59.9749032 L72.5103022,61.8000766 L73.4927987,58.9466997 C74.2620498,58.9697853 75.0393411,58.9066317 75.8101279,58.7525647 L77.2490403,61.5765894 L82.2441279,59.0314651 L80.8052155,56.2074404 L80.8052155,56.2074404 Z M76.7450785,53.7272111 C79.7581987,52.1919497 80.9642243,48.5204283 79.4388122,45.5266386 C77.9134002,42.5328488 74.2341929,41.350478 71.2210728,42.8857394 C68.2079527,44.4210007 67.001927,48.0925221 68.5273391,51.0863119 C70.0527511,54.0801016 73.7319584,55.2624725 76.7450785,53.7272111 Z" id="Oval-24" sketch:type="MSShapeGroup"></path>
        </g>
    </g>
</svg>