<?xml version="1.0" encoding="UTF-8" standalone="no"?>
<svg width="137px" height="124px" viewBox="0 0 137 124" version="1.1" xmlns="http://www.w3.org/2000/svg" xmlns:xlink="http://www.w3.org/1999/xlink" xmlns:sketch="http://www.bohemiancoding.com/sketch/ns">
    <!-- Generator: Sketch 3.0.4 (8053) - http://www.bohemiancoding.com/sketch -->
    <title>Group</title>
    <desc>Created with Sketch.</desc>
    <defs></defs>
    <g id="Page-1" stroke="none" stroke-width="1" fill="none" fill-rule="evenodd" sketch:type="MSPage">
        <g id="Group" sketch:type="MSLayerGroup" transform="translate(0.000000, 1.000000)" stroke="#BBBBBB">
            <rect id="Rectangle-38" stroke-width="2" sketch:type="MSShapeGroup" x="119" y="57" width="7" height="7"></rect>
            <path d="M112.413411,58 L116.629398,58" id="Line" stroke-width="2" stroke-linecap="square" sketch:type="MSShapeGroup"></path>
            <path d="M112.413411,61 L116.629398,61" id="Line-3" stroke-width="2" stroke-linecap="square" sketch:type="MSShapeGroup"></path>
            <path d="M112.413411,64 L116.629398,64" id="Line-4" stroke-width="2" stroke-linecap="square" sketch:type="MSShapeGroup"></path>
            <rect id="Rectangle-37" stroke-width="2" sketch:type="MSShapeGroup" x="109" y="47" width="20" height="27"></rect>
            <path d="M110.5,55 L127.5,55" id="Line" stroke-width="2" stroke-linecap="square" sketch:type="MSShapeGroup"></path>
            <rect id="Rectangle-40" stroke-width="2" sketch:type="MSShapeGroup" x="0" y="78" width="136.917969" height="19.8940638" rx="10"></rect>
            <g transform="translate(33.000000, 0.000000)" sketch:type="MSShapeGroup">
                <rect id="Rectangle-32" stroke-width="2" fill="#FFFFFF" x="0" y="23.404781" width="70.2143429" height="81.9167334"></rect>
                <rect id="Rectangle-36" stroke-width="2" x="8.19167334" y="55.0012353" width="51.4905182" height="38.6178886"></rect>
                <ellipse id="Oval-17" stroke-width="2" cx="21.0643029" cy="5.85119525" rx="5.85119525" ry="5.85119525"></ellipse>
                <ellipse id="Oval-19" stroke-width="2" cx="16.5281028" cy="42.1286058" rx="5.65063181" ry="5.65063181"></ellipse>
                <ellipse id="Oval-19" stroke-width="2" cx="35.2519276" cy="42.1286058" rx="5.65063181" ry="5.65063181"></ellipse>
                <path d="M52.8055133,47.979801 C55.9262711,47.979801 58.4561452,45.449927 58.4561452,42.3291692 C58.4561452,39.2084114 55.9262711,36.6785374 52.8055133,36.6785374 C49.6847556,36.6785374 47.1548815,39.2084114 47.1548815,42.3291692 C47.1548815,45.449927 49.6847556,47.979801 52.8055133,47.979801 Z" id="Oval-19" stroke-width="2"></path>
                <ellipse id="Oval-18" stroke-width="2" cx="49.1500401" cy="5.85119525" rx="5.85119525" ry="5.85119525"></ellipse>
                <rect id="Rectangle-33" stroke-width="2" x="11.7023905" y="103.981036" width="10.5321514" height="18.0301382"></rect>
                <rect id="Rectangle-34" stroke-width="2" x="47.979801" y="103.981036" width="10.5321514" height="18.0301382"></rect>
                <path d="M21.6128524,11.8506703 L25.557838,23.9041896 L28.7882806,23.9041896 L24.4964517,10.6947164 L21.6128524,11.8506703 Z" id="Path-33" stroke-width="2"></path>
                <path d="M41.4526327,11.8195287 L45.4519018,23.9041896 L48.886622,23.9041896 L44.3839444,10.7772845 L41.4526327,11.8195287 Z" id="Path-34" stroke-width="2" transform="translate(45.054203, 16.968466) scale(-1, 1) translate(-45.054203, -16.968466) "></path>
                <path d="M27.1754878,5.98947545 L29.3694003,3.33415276 L30.7224892,5.95119126 L33.1706773,3.0713061 L35.1174568,6.10118528 L36.7559629,3.39872161 L39.0085159,6.52231134 L41.0253897,3.39872161 L43.0748538,6.52231134" id="Path-35"></path>
            </g>
            <g id="Oval-22-+-Line" transform="translate(4.000000, 48.000000)" stroke-width="2" sketch:type="MSShapeGroup">
                <path d="M15.4910889,19.7896829 C18.7717755,18.009434 21,14.5287419 21,10.5263158 C21,4.71279211 16.2989899,0 10.5,0 C4.70101013,0 0,4.71279211 0,10.5263158 C0,14.5853019 2.29164542,18.1077041 5.64862061,19.8641332 L5.64862061,24.6923741 L15.4910889,24.6923741 L15.4910889,19.7896829 Z" id="Oval-22"></path>
                <path d="M6.234375,21.0526316 L15.5089894,21.0526316" id="Line" stroke-linecap="square"></path>
            </g>
            <path d="M5,47 L2,44" id="Line" stroke-width="2" stroke-linecap="square" sketch:type="MSShapeGroup"></path>
            <path d="M26,47 L23,45" id="Line-2" stroke-width="2" stroke-linecap="square" sketch:type="MSShapeGroup" transform="translate(24.500000, 46.000000) scale(-1, 1) translate(-24.500000, -46.000000) "></path>
            <path d="M15,40 L15,44" id="Line" stroke-width="2" stroke-linecap="square" sketch:type="MSShapeGroup"></path>
        </g>
    </g>
</svg>