<?xml version="1.0" encoding="UTF-8" standalone="no"?>
<svg width="125px" height="87px" viewBox="0 0 125 87" version="1.1" xmlns="http://www.w3.org/2000/svg" xmlns:xlink="http://www.w3.org/1999/xlink" xmlns:sketch="http://www.bohemiancoding.com/sketch/ns">
    <!-- Generator: Sketch 3.0.4 (8053) - http://www.bohemiancoding.com/sketch -->
    <title>Group + Group</title>
    <desc>Created with Sketch.</desc>
    <defs></defs>
    <g id="Page-1" stroke="none" stroke-width="1" fill="none" fill-rule="evenodd" sketch:type="MSPage">
        <g id="Group-+-Group" sketch:type="MSLayerGroup" stroke-width="2" stroke="#BBBBBB">
            <g id="Group" sketch:type="MSShapeGroup">
                <rect id="Rectangle-29" fill="#FFFFFF" x="0" y="0" width="101.119909" height="68.3242626" rx="5"></rect>
                <ellipse id="Oval-11" cx="11.6124557" cy="11.6124557" rx="2.50255405" ry="2.50255405"></ellipse>
                <ellipse id="Oval-12" cx="19.7457564" cy="11.6124557" rx="2.50255405" ry="2.50255405"></ellipse>
                <ellipse id="Oval-13" cx="27.879057" cy="11.6124557" rx="2.50255405" ry="2.50255405"></ellipse>
                <path d="M1.36648525,21 L99.7576423,21" id="Line" stroke-linecap="square"></path>
                <path d="M10.4763869,31 L53.3026136,31" id="Line-2" stroke-linecap="square"></path>
                <path d="M10.4763869,42 L53.3026136,42" id="Line-3" stroke-linecap="square"></path>
                <path d="M10.4763869,53 L53.3026136,53" id="Line-4" stroke-linecap="square"></path>
            </g>
            <g id="Group" transform="translate(23.000000, 18.000000)" sketch:type="MSShapeGroup">
                <rect id="Rectangle-29" fill="#FFFFFF" x="0" y="0" width="101.119909" height="68.3242626" rx="5"></rect>
                <ellipse id="Oval-11" cx="11.6124557" cy="11.6124557" rx="2.50255405" ry="2.50255405"></ellipse>
                <ellipse id="Oval-12" cx="19.7457564" cy="11.6124557" rx="2.50255405" ry="2.50255405"></ellipse>
                <ellipse id="Oval-13" cx="27.879057" cy="11.6124557" rx="2.50255405" ry="2.50255405"></ellipse>
                <path d="M1.36648525,21 L99.7576423,21" id="Line" stroke-linecap="square"></path>
                <path d="M10.4763869,31 L53.3026136,31" id="Line-2" stroke-linecap="square"></path>
                <path d="M10.4763869,42 L53.3026136,42" id="Line-3" stroke-linecap="square"></path>
                <path d="M10.4763869,53 L53.3026136,53" id="Line-4" stroke-linecap="square"></path>
                <rect id="Rectangle-30" x="64.680302" y="30.9736657" width="24.5967346" height="24.5967346"></rect>
            </g>
        </g>
    </g>
</svg>