<?xml version="1.0" encoding="UTF-8" standalone="no"?>
<svg width="142px" height="216px" viewBox="0 0 142 216" version="1.1" xmlns="http://www.w3.org/2000/svg" xmlns:xlink="http://www.w3.org/1999/xlink" xmlns:sketch="http://www.bohemiancoding.com/sketch/ns">
    <!-- Generator: Sketch 3.0.4 (8053) - http://www.bohemiancoding.com/sketch -->
    <title>Imported Layers</title>
    <desc>Created with Sketch.</desc>
    <defs></defs>
    <g id="Page-1" stroke="none" stroke-width="1" fill="none" fill-rule="evenodd" sketch:type="MSPage">
        <g id="works-docturno" sketch:type="MSLayerGroup" transform="translate(-487.000000, -208.000000)" fill="#FFFFFF">
            <g id="Imported-Layers" transform="translate(487.000000, 208.000000)" sketch:type="MSShapeGroup">
                <path d="M50.08695,47.185377 C43.322425,47.185377 36.39105,51.6434754 34.202475,58.4510164 C30.996825,68.3994098 39.8594,75.4264918 48.8977,75.4264918 C51.45015,75.4264918 54.015025,74.8670164 56.326075,73.6542295 C62.737375,70.2956066 64.416525,60.4481311 61.885375,54.1380984 C61.36885,52.8562623 60.476025,51.6682623 59.336475,50.6466885 C56.677525,48.2565246 53.400875,47.185377 50.08695,47.185377" id="Fill-1"></path>
                <path d="M36.8206,80.1005902 C31.831075,80.1005902 26.878825,81.3399344 22.8691,83.8859016 C18.3606,86.7363934 13.08175,91.7787541 10.353575,96.3660984 C-10.516875,131.395279 5.365825,168.072787 31.777825,194.134426 C33.5617,195.899607 51.8939,215.114754 57.8224,215.114754 C58.7951,215.114754 59.4341,214.596 59.609825,213.393836 C63.42785,187.061311 66.36725,160.112656 66.01225,133.482689 C65.82055,119.258557 66.36725,100.11423 56.71125,88.4962623 C52.126425,82.9794098 44.42825,80.1005902 36.8206,80.1005902" id="Fill-2"></path>
                <path d="M90.42205,1.20570492 C88.4802,1.88557377 86.618225,2.92662295 84.985225,4.33239344 C80.143025,8.47180328 77.956225,19.7215082 81.133475,25.4614426 C84.87695,32.2158689 93.430675,34.3776393 100.186325,31.3855082 C116.566025,24.1123279 110.2204,-5.69921311 90.42205,1.20570492" id="Fill-3"></path>
                <path d="M56.50535,213.287607 C57.163875,220.137639 72.75725,205.929443 74.4861,204.346623 C86.046675,193.796262 97.03215,182.222557 106.835475,170.020328 C119.067,154.80118 128.59165,137.827475 135.647275,119.649836 C146.435725,91.8371803 146.75345,44.1365902 107.9555,38.8074098 C98.847975,37.5521311 90.4256,41.6720656 83.866975,47.7165246 C68.140475,62.215082 63.294725,84.2630164 60.593175,104.563475 C55.782925,140.718689 53.06895,176.842033 56.50535,213.287607" id="Fill-4"></path>
            </g>
        </g>
    </g>
</svg>